<?xml version="1.0" standalone="no"?>
<!DOCTYPE svg PUBLIC "-//W3C//DTD SVG 20010904//EN"
 "http://www.w3.org/TR/2001/REC-SVG-20010904/DTD/svg10.dtd">
<svg version="1.0" xmlns="http://www.w3.org/2000/svg"
 width="4500.000000pt" height="4500.000000pt" viewBox="0 0 4500.000000 4500.000000"
 preserveAspectRatio="xMidYMid meet">
<metadata>
Created by potrace 1.14, written by Peter Selinger 2001-2017
</metadata>
<g transform="translate(0.000000,4500.000000) scale(0.100000,-0.100000)"
fill="#000000" stroke="none">
<path d="M22045 40834 c-522 -17 -982 -47 -1410 -90 -3488 -352 -6790 -1696
-9540 -3883 -963 -765 -1879 -1660 -2674 -2609 -2478 -2963 -3951 -6624 -4215
-10477 -41 -599 -55 -1462 -28 -1790 38 -469 100 -859 202 -1265 133 -534 295
-973 550 -1485 370 -746 828 -1377 1426 -1966 569 -559 1167 -986 1879 -1339
859 -427 1654 -649 2679 -747 156 -15 627 -17 5236 -20 3631 -3 5083 -1 5129
7 135 23 259 104 334 218 90 138 82 -10 85 1442 2 950 0 1299 -8 1340 -35 163
-171 312 -340 372 l-65 23 -5070 5 -5070 6 -150 22 c-278 40 -472 85 -713 163
-846 277 -1566 824 -2056 1561 -345 520 -550 1075 -633 1713 -15 119 -18 211
-17 625 1 702 39 1237 140 1950 334 2372 1241 4629 2645 6588 726 1013 1598
1952 2559 2756 2266 1896 5023 3073 7945 3390 604 66 914 81 1635 81 721 0
1031 -15 1635 -81 2909 -316 5662 -1487 7920 -3369 726 -605 1435 -1321 2018
-2039 67 -82 143 -175 168 -206 56 -68 134 -123 225 -158 l69 -27 1522 -3
c1660 -3 1595 -5 1720 54 70 33 186 146 225 220 38 71 58 155 58 244 0 145
-25 198 -265 560 -911 1374 -1989 2605 -3235 3694 -1952 1708 -4261 2990
-6725 3736 -1468 444 -2918 693 -4490 770 -212 10 -1115 20 -1300 14z"/>
<path d="M11905 29828 c-79 -15 -189 -73 -248 -131 -66 -64 -104 -123 -134
-207 l-23 -65 0 -4101 c0 -4064 0 -4102 20 -4166 50 -164 192 -300 355 -343
53 -13 453 -15 3615 -15 3162 0 3562 2 3615 15 82 22 149 60 222 129 79 74
138 186 153 291 13 95 13 2436 0 2530 -26 178 -154 335 -332 408 l-53 22
-1900 5 -1900 5 -57 22 c-176 67 -294 197 -333 367 -14 58 -15 161 -13 754 l3
687 24 60 c66 165 189 279 346 320 53 13 389 15 2985 15 2540 0 2934 2 2995
15 187 40 335 176 392 360 17 57 18 126 18 1330 l0 1270 -22 71 c-41 131 -132
238 -255 304 -120 64 252 60 -4808 59 -2857 -1 -4634 -5 -4665 -11z"/>
<path d="M30355 29829 c-1804 -95 -3492 -831 -4784 -2084 -1639 -1590 -2431
-3795 -2180 -6070 270 -2459 1791 -4633 4019 -5744 917 -457 1888 -710 2925
-761 290 -14 2672 -14 2751 1 91 16 197 72 262 137 66 66 101 121 134 212 l23
65 3 1205 c2 723 -1 1243 -7 1300 -12 117 -38 186 -102 272 -58 78 -156 149
-250 181 l-64 22 -1380 6 c-1483 6 -1411 4 -1723 59 -729 130 -1449 491 -1977
991 -373 354 -627 694 -845 1134 -204 413 -318 791 -382 1265 -18 137 -22 214
-22 460 -1 310 8 428 49 675 145 865 600 1680 1265 2267 620 548 1349 876
2185 985 131 17 256 18 1855 18 1885 0 1790 3 2125 -61 1503 -287 2709 -1423
3080 -2903 83 -331 105 -521 112 -948 7 -472 -16 -980 -67 -1498 -306 -3063
-1534 -5923 -3549 -8265 -507 -589 -1123 -1195 -1731 -1704 -2304 -1928 -5111
-3110 -8090 -3405 -824 -82 -1718 -94 -2560 -36 -1240 87 -2474 332 -3665 730
-1615 538 -3129 1354 -4478 2413 -854 669 -1687 1487 -2360 2316 -67 82 -143
175 -168 206 -56 68 -134 123 -225 158 l-69 27 -1522 3 c-1660 3 -1595 5
-1720 -54 -70 -33 -186 -146 -225 -220 -38 -71 -58 -155 -58 -244 0 -145 25
-198 265 -560 1628 -2454 3826 -4489 6388 -5914 2333 -1298 4900 -2063 7567
-2255 501 -37 757 -45 1340 -45 582 0 843 9 1340 45 5033 363 9665 2775 12877
6705 1999 2446 3337 5389 3862 8494 171 1011 253 1974 255 2985 1 465 -5 601
-40 910 -147 1322 -633 2548 -1428 3603 -239 317 -436 541 -727 827 -567 558
-1164 983 -1874 1335 -860 427 -1665 652 -2675 747 -153 14 -388 16 -1875 18
-935 2 -1772 -1 -1860 -6z"/>
</g>
</svg>
